<svg width="413" height="495" viewBox="0 0 413 495" fill="none" xmlns="http://www.w3.org/2000/svg">
<g filter="url(#filter0_d_0_15)">
<circle cx="206.501" cy="240.873" r="60.5592" fill="url(#paint0_linear_0_15)"/>
<path d="M218.16 250.555C215.155 250.555 212.718 248.118 212.718 245.112C212.718 242.107 215.155 239.67 218.16 239.67C221.166 239.67 223.603 242.107 223.603 245.112C223.603 248.118 221.166 250.555 218.16 250.555Z" fill="black"/>
<path d="M218.16 250.555C215.155 250.555 212.718 248.118 212.718 245.112C212.718 242.107 215.155 239.67 218.16 239.67C221.166 239.67 223.603 242.107 223.603 245.112C223.603 248.118 221.166 250.555 218.16 250.555Z" fill="white"/>
<path d="M194.841 250.555C191.835 250.555 189.399 248.118 189.399 245.112C189.399 242.107 191.835 239.67 194.841 239.67C197.847 239.67 200.283 242.107 200.283 245.112C200.283 248.118 197.847 250.555 194.841 250.555Z" fill="black"/>
<path d="M194.841 250.555C191.835 250.555 189.399 248.118 189.399 245.112C189.399 242.107 191.835 239.67 194.841 239.67C197.847 239.67 200.283 242.107 200.283 245.112C200.283 248.118 197.847 250.555 194.841 250.555Z" fill="white"/>
<path d="M166.307 237.671C166.512 235.4 168.094 233.496 170.263 232.79C170.881 232.588 171.506 232.399 172.138 232.221L172.825 225.692C173.276 222.457 175.394 219.708 178.39 218.409C186.896 214.723 196.43 212.657 206.501 212.657C216.571 212.657 226.105 214.723 234.611 218.409C237.608 219.708 239.726 222.457 240.177 225.692L240.864 232.221C241.495 232.398 242.12 232.587 242.739 232.79C244.907 233.496 246.489 235.4 246.694 237.671C246.813 238.985 246.873 240.32 246.873 241.672C246.873 243.023 246.813 244.358 246.694 245.672C246.49 247.943 244.907 249.848 242.74 250.554C242.121 250.755 241.495 250.944 240.864 251.122C240.618 252.901 240.304 254.655 239.927 256.378C239.207 259.665 236.914 262.378 233.81 263.677C225.508 267.148 216.256 269.088 206.501 269.088C196.745 269.088 187.493 267.148 179.192 263.677C176.087 262.378 173.794 259.666 173.074 256.378C172.697 254.655 172.385 252.901 172.138 251.122C171.506 250.945 170.881 250.755 170.261 250.554C168.094 249.848 166.513 247.943 166.307 245.672C166.188 244.358 166.128 243.023 166.128 241.672C166.128 240.32 166.188 238.985 166.307 237.671ZM178.294 253.973C178.538 255.887 179.786 257.541 181.592 258.218C189.264 261.09 197.676 262.678 206.501 262.678C215.325 262.678 223.738 261.09 231.409 258.218C233.216 257.542 234.464 255.888 234.707 253.973C235.07 251.123 235.258 248.205 235.258 245.236C235.258 242.266 235.07 239.348 234.707 236.498C234.464 234.584 233.216 232.93 231.409 232.253C223.738 229.381 215.325 227.793 206.501 227.793C197.676 227.793 189.264 229.381 181.592 232.253C179.786 232.929 178.538 234.583 178.294 236.498C177.932 239.348 177.744 242.266 177.744 245.236C177.744 248.205 177.932 251.123 178.294 253.973Z" fill="black"/>
<path d="M166.307 237.671C166.512 235.4 168.094 233.496 170.263 232.79C170.881 232.588 171.506 232.399 172.138 232.221L172.825 225.692C173.276 222.457 175.394 219.708 178.39 218.409C186.896 214.723 196.43 212.657 206.501 212.657C216.571 212.657 226.105 214.723 234.611 218.409C237.608 219.708 239.726 222.457 240.177 225.692L240.864 232.221C241.495 232.398 242.12 232.587 242.739 232.79C244.907 233.496 246.489 235.4 246.694 237.671C246.813 238.985 246.873 240.32 246.873 241.672C246.873 243.023 246.813 244.358 246.694 245.672C246.49 247.943 244.907 249.848 242.74 250.554C242.121 250.755 241.495 250.944 240.864 251.122C240.618 252.901 240.304 254.655 239.927 256.378C239.207 259.665 236.914 262.378 233.81 263.677C225.508 267.148 216.256 269.088 206.501 269.088C196.745 269.088 187.493 267.148 179.192 263.677C176.087 262.378 173.794 259.666 173.074 256.378C172.697 254.655 172.385 252.901 172.138 251.122C171.506 250.945 170.881 250.755 170.261 250.554C168.094 249.848 166.513 247.943 166.307 245.672C166.188 244.358 166.128 243.023 166.128 241.672C166.128 240.32 166.188 238.985 166.307 237.671ZM178.294 253.973C178.538 255.887 179.786 257.541 181.592 258.218C189.264 261.09 197.676 262.678 206.501 262.678C215.325 262.678 223.738 261.09 231.409 258.218C233.216 257.542 234.464 255.888 234.707 253.973C235.07 251.123 235.258 248.205 235.258 245.236C235.258 242.266 235.07 239.348 234.707 236.498C234.464 234.584 233.216 232.93 231.409 232.253C223.738 229.381 215.325 227.793 206.501 227.793C197.676 227.793 189.264 229.381 181.592 232.253C179.786 232.929 178.538 234.583 178.294 236.498C177.932 239.348 177.744 242.266 177.744 245.236C177.744 248.205 177.932 251.123 178.294 253.973Z" fill="white"/>
<circle cx="327.619" cy="240.873" r="50.466" fill="url(#paint1_linear_0_15)"/>
<circle cx="327.619" cy="240.873" r="50.466" fill="white" fill-opacity="0.2"/>
<path d="M330.546 221.444C333.174 221.444 335.632 222.054 337.917 223.273C340.203 224.492 342.127 226.168 343.689 228.301H339.689C339.041 228.301 338.498 228.521 338.059 228.96C337.62 229.398 337.402 229.941 337.403 230.587C337.405 231.233 337.624 231.776 338.061 232.217C338.499 232.657 339.041 232.876 339.689 232.873H348.832C349.479 232.873 350.022 232.653 350.459 232.214C350.896 231.776 351.116 231.233 351.117 230.587V221.444C351.117 220.796 350.898 220.254 350.459 219.817C350.02 219.379 349.478 219.16 348.832 219.158C348.186 219.157 347.642 219.376 347.202 219.817C346.762 220.257 346.543 220.8 346.546 221.444V224.53C344.603 222.092 342.231 220.206 339.43 218.873C336.63 217.539 333.668 216.873 330.546 216.873C327.689 216.873 325.012 217.406 322.516 218.473C320.02 219.539 317.84 221.006 315.974 222.873C314.374 224.473 313.06 226.32 312.032 228.416C311.003 230.511 310.355 232.758 310.089 235.158C310.013 235.806 310.203 236.339 310.66 236.758C311.117 237.177 311.67 237.387 312.317 237.387C312.965 237.387 313.507 237.177 313.945 236.758C314.382 236.339 314.64 235.806 314.717 235.158C314.984 233.406 315.498 231.768 316.26 230.244C317.022 228.72 318.013 227.349 319.232 226.13C320.679 224.682 322.365 223.539 324.288 222.701C326.211 221.863 328.297 221.444 330.546 221.444ZM348.603 240.073C347.994 239.996 347.441 240.111 346.946 240.416C346.451 240.72 346.108 241.177 345.917 241.787C345.079 244.873 343.46 247.444 341.06 249.501C338.66 251.558 335.879 252.796 332.717 253.216C331.917 253.33 331.346 253.625 331.003 254.102C330.66 254.579 330.489 255.084 330.489 255.616C330.489 256.225 330.688 256.777 331.088 257.273C331.487 257.768 332.049 257.977 332.774 257.901C337.003 257.406 340.726 255.778 343.945 253.017C347.163 250.256 349.325 246.836 350.432 242.758C350.622 242.111 350.527 241.52 350.146 240.987C349.765 240.454 349.251 240.149 348.603 240.073ZM328.26 236.53L325.517 239.273C324.984 239.806 324.746 240.368 324.802 240.96C324.858 241.551 325.097 242.055 325.517 242.473C325.938 242.89 326.442 243.129 327.03 243.188C327.619 243.248 328.181 243.009 328.717 242.473L332.146 239.044C332.374 238.816 332.546 238.559 332.66 238.274C332.774 237.989 332.832 237.693 332.832 237.387V228.301C332.832 227.654 332.612 227.111 332.173 226.674C331.734 226.236 331.192 226.017 330.546 226.016C329.9 226.014 329.357 226.233 328.916 226.674C328.476 227.114 328.257 227.657 328.26 228.301V236.53ZM315.06 264.873C315.594 264.873 316.06 264.701 316.459 264.358C316.858 264.016 317.116 263.577 317.232 263.044L317.574 261.444C318.032 261.254 318.46 261.054 318.859 260.845C319.258 260.636 319.668 260.379 320.089 260.073L321.746 260.587C322.241 260.739 322.727 260.72 323.204 260.53C323.681 260.339 324.052 260.035 324.317 259.616L324.774 258.816C325.041 258.358 325.136 257.863 325.06 257.33C324.984 256.796 324.736 256.358 324.317 256.016L323.06 254.93C323.136 254.435 323.174 253.939 323.174 253.444C323.174 252.949 323.136 252.454 323.06 251.958L324.317 250.873C324.736 250.53 324.984 250.102 325.06 249.588C325.136 249.075 325.041 248.588 324.774 248.13L324.26 247.273C323.994 246.854 323.632 246.549 323.174 246.358C322.717 246.168 322.241 246.149 321.746 246.301L320.089 246.816C319.67 246.511 319.26 246.254 318.859 246.045C318.458 245.836 318.03 245.636 317.574 245.444L317.232 243.787C317.117 243.254 316.86 242.825 316.459 242.502C316.058 242.179 315.592 242.017 315.06 242.016H314.146C313.613 242.016 313.146 242.187 312.745 242.53C312.344 242.873 312.087 243.311 311.974 243.844L311.632 245.444C311.174 245.635 310.736 245.853 310.317 246.1C309.898 246.347 309.498 246.624 309.117 246.93L307.574 246.416C307.041 246.225 306.527 246.225 306.032 246.416C305.536 246.606 305.155 246.93 304.889 247.387L304.432 248.187C304.165 248.644 304.07 249.139 304.146 249.673C304.222 250.206 304.47 250.644 304.889 250.987L306.146 252.073C306.07 252.568 306.032 253.044 306.032 253.501C306.032 253.958 306.07 254.435 306.146 254.93L304.889 256.016C304.47 256.358 304.222 256.787 304.146 257.302C304.07 257.817 304.165 258.303 304.432 258.758L304.946 259.616C305.213 260.035 305.574 260.339 306.032 260.53C306.489 260.72 306.965 260.739 307.46 260.587L309.117 260.073C309.536 260.377 309.946 260.634 310.347 260.843C310.748 261.052 311.176 261.252 311.632 261.444L311.974 263.101C312.089 263.635 312.346 264.064 312.745 264.388C313.144 264.713 313.611 264.874 314.146 264.873H315.06ZM314.603 258.016C313.346 258.016 312.27 257.568 311.376 256.674C310.481 255.779 310.032 254.703 310.029 253.444C310.026 252.185 310.474 251.11 311.371 250.217C312.269 249.324 313.346 248.876 314.603 248.873C315.86 248.87 316.936 249.318 317.83 250.217C318.725 251.116 319.173 252.192 319.174 253.444C319.176 254.697 318.728 255.773 317.83 256.674C316.933 257.574 315.857 258.022 314.603 258.016Z" fill="white"/>
<circle cx="263.695" cy="133.212" r="50.466" fill="url(#paint2_linear_0_15)"/>
<circle cx="263.695" cy="133.212" r="50.466" fill="white" fill-opacity="0.2"/>
<path d="M280.495 136.812L280.495 145C280.495 145.88 280.048 146.699 279.307 147.175L263.695 157.212M263.695 157.212L248.083 147.175C247.343 146.699 246.895 145.88 246.895 145L246.895 136.812M263.695 157.212L263.695 136.812M263.695 115.212L277.833 123.912C278.719 124.457 279.845 124.419 280.692 123.814L284.524 121.077C286.03 120.001 285.952 117.739 284.376 116.769L273.557 110.111C272.671 109.566 271.545 109.605 270.698 110.209L263.695 115.212ZM263.695 115.212L249.557 123.912C248.671 124.457 247.545 124.419 246.698 123.814L242.866 121.077C241.361 120.001 241.438 117.739 243.014 116.769L253.833 110.111C254.719 109.566 255.845 109.605 256.692 110.209L263.695 115.212ZM263.695 135.612L277.833 126.911C278.719 126.366 279.845 126.405 280.692 127.009L284.524 129.747C286.03 130.822 285.952 133.084 284.376 134.054L273.557 140.712C272.671 141.257 271.545 141.219 270.698 140.614L263.695 135.612ZM263.695 135.612L249.557 126.911C248.671 126.366 247.545 126.405 246.698 127.009L242.866 129.747C241.361 130.822 241.438 133.084 243.014 134.054L253.833 140.712C254.719 141.257 255.845 141.219 256.692 140.614L263.695 135.612Z" stroke="white" stroke-width="4.11429"/>
<circle cx="263.695" cy="348.533" r="50.466" fill="url(#paint3_linear_0_15)"/>
<circle cx="263.695" cy="348.533" r="50.466" fill="white" fill-opacity="0.2"/>
<path d="M265.657 364.836C264.498 363.952 262.891 363.952 261.733 364.836L252.5 371.886C251.945 372.34 251.34 372.555 250.684 372.53C250.029 372.506 249.449 372.317 248.944 371.961C248.44 371.606 248.05 371.127 247.773 370.524C247.497 369.921 247.484 369.266 247.734 368.557L251.357 356.797C251.768 355.464 251.277 354.017 250.14 353.209L241.077 346.772C240.472 346.368 240.094 345.839 239.943 345.183C239.791 344.528 239.817 343.923 240.018 343.368C240.22 342.813 240.573 342.321 241.077 341.891C241.582 341.462 242.187 341.248 242.893 341.25H254.032C255.458 341.25 256.715 340.316 257.127 338.952L260.82 326.726C261.073 326.02 261.464 325.478 261.994 325.098C262.525 324.719 263.092 324.53 263.695 324.532C264.298 324.535 264.866 324.724 265.398 325.101C265.931 325.479 266.321 326.02 266.569 326.726L270.263 338.952C270.675 340.316 271.932 341.25 273.358 341.25H284.497C285.203 341.25 285.808 341.465 286.313 341.894C286.817 342.324 287.17 342.815 287.372 343.368C287.573 343.921 287.599 344.526 287.447 345.183C287.296 345.841 286.918 346.371 286.313 346.772L277.25 353.209C276.113 354.017 275.622 355.464 276.032 356.797L279.656 368.557C279.908 369.264 279.896 369.919 279.62 370.524C279.343 371.129 278.952 371.608 278.446 371.961C277.939 372.314 277.359 372.504 276.706 372.53C276.052 372.557 275.447 372.342 274.89 371.886L265.657 364.836Z" stroke="white" stroke-width="4.52647"/>
<circle cx="367.992" cy="345.168" r="37.0084" fill="url(#paint4_linear_0_15)"/>
<circle cx="367.992" cy="345.168" r="37.0084" fill="white" fill-opacity="0.2"/>
<circle cx="367.992" cy="345.168" r="37.0084" fill="white" fill-opacity="0.2"/>
<path d="M363.192 361.168C366.162 361.168 369.011 359.988 371.111 357.888C373.211 355.788 374.391 352.939 374.391 349.969C374.391 346.998 373.211 344.15 371.111 342.049C369.011 339.949 366.162 338.769 363.192 338.769C360.221 338.769 357.373 339.949 355.272 342.049C353.172 344.15 351.992 346.998 351.992 349.969C351.992 352.939 353.172 355.788 355.272 357.888C357.373 359.988 360.221 361.168 363.192 361.168Z" stroke="white" stroke-width="2.62285" stroke-linecap="round" stroke-linejoin="round"/>
<path d="M372.792 351.567C375.762 351.567 378.611 350.387 380.711 348.287C382.811 346.187 383.991 343.338 383.991 340.368C383.991 337.397 382.811 334.549 380.711 332.448C378.611 330.348 375.762 329.168 372.792 329.168C369.821 329.168 366.973 330.348 364.872 332.448C362.772 334.549 361.592 337.397 361.592 340.368C361.592 343.338 362.772 346.187 364.872 348.287C366.973 350.387 369.821 351.567 372.792 351.567Z" stroke="white" stroke-width="2.62285" stroke-linecap="round" stroke-linejoin="round"/>
<circle cx="206.5" cy="442.736" r="37.0084" fill="url(#paint5_linear_0_15)"/>
<circle cx="206.5" cy="442.736" r="37.0084" fill="white" fill-opacity="0.2"/>
<circle cx="206.5" cy="442.736" r="37.0084" fill="white" fill-opacity="0.2"/>
<path d="M212.959 435.397V433.635C212.959 433.474 212.827 433.342 212.665 433.342H198.574C198.412 433.342 198.28 433.474 198.28 433.635V435.397C198.28 435.558 198.412 435.69 198.574 435.69H212.665C212.827 435.69 212.959 435.558 212.959 435.397ZM198.574 438.626C198.412 438.626 198.28 438.758 198.28 438.92V440.681C198.28 440.843 198.412 440.975 198.574 440.975H205.326C205.487 440.975 205.62 440.843 205.62 440.681V438.92C205.62 438.758 205.487 438.626 205.326 438.626H198.574ZM212.372 442.883C207.994 442.883 204.445 446.431 204.445 450.809C204.445 455.187 207.994 458.736 212.372 458.736C216.75 458.736 220.298 455.187 220.298 450.809C220.298 446.431 216.75 442.883 212.372 442.883ZM216.317 454.754C215.264 455.808 213.862 456.387 212.372 456.387C210.882 456.387 209.48 455.808 208.427 454.754C207.374 453.701 206.794 452.299 206.794 450.809C206.794 449.32 207.374 447.918 208.427 446.865C209.48 445.811 210.882 445.231 212.372 445.231C213.862 445.231 215.264 445.811 216.317 446.865C217.37 447.918 217.95 449.32 217.95 450.809C217.95 452.299 217.37 453.701 216.317 454.754ZM215.638 448.02H214.012C213.917 448.02 213.829 448.065 213.774 448.142L211.443 451.364L210.596 450.193C210.569 450.155 210.533 450.124 210.491 450.103C210.45 450.082 210.404 450.071 210.357 450.072H208.739C208.5 450.072 208.361 450.343 208.5 450.538L211.209 454.285C211.326 454.446 211.565 454.446 211.682 454.285L215.873 448.487C216.016 448.292 215.876 448.02 215.638 448.02ZM203.858 455.213H195.344V429.378H215.895V442.002C215.895 442.164 216.027 442.296 216.188 442.296H218.243C218.405 442.296 218.537 442.164 218.537 442.002V427.91C218.537 427.261 218.012 426.736 217.363 426.736H193.876C193.227 426.736 192.702 427.261 192.702 427.91V456.681C192.702 457.331 193.227 457.855 193.876 457.855H203.858C204.02 457.855 204.152 457.723 204.152 457.562V455.507C204.152 455.345 204.02 455.213 203.858 455.213Z" fill="white"/>
<circle cx="206.5" cy="39.0084" r="37.0084" fill="url(#paint6_linear_0_15)"/>
<circle cx="206.5" cy="39.0084" r="37.0084" fill="white" fill-opacity="0.2"/>
<circle cx="206.5" cy="39.0084" r="37.0084" fill="white" fill-opacity="0.2"/>
<path d="M193.548 51.9608C192.71 51.9608 191.993 51.6626 191.396 51.0663C190.8 50.47 190.501 49.7523 190.5 48.9132V32.1513C190.5 31.3132 190.799 30.596 191.396 29.9996C191.994 29.4033 192.711 29.1047 193.548 29.1036H199.643V26.056C199.643 25.2179 199.942 24.5007 200.539 23.9044C201.136 23.3081 201.854 23.0094 202.691 23.0084H208.786C209.624 23.0084 210.342 23.3071 210.939 23.9044C211.536 24.5017 211.835 25.2189 211.834 26.056V29.1036H217.929C218.767 29.1036 219.485 29.4023 220.082 29.9996C220.679 30.597 220.978 31.3142 220.976 32.1513V36.7227C220.976 37.1544 220.83 37.51 220.538 37.7894C220.245 38.0687 219.883 38.2084 219.453 38.2084C219.022 38.2084 218.66 38.0626 218.368 37.7711C218.075 37.4795 217.929 37.1174 217.929 36.6846V32.1513H193.548V48.9132H203.453C203.884 48.9132 204.247 49.0594 204.539 49.352C204.832 49.6446 204.978 50.0062 204.976 50.437C204.975 50.8677 204.829 51.2299 204.538 51.5234C204.246 51.817 203.884 51.9628 203.453 51.9608H193.548ZM202.691 29.1036H208.786V26.056H202.691V29.1036ZM214.881 55.0084C212.773 55.0084 210.977 54.2653 209.492 52.7791C208.006 51.2928 207.263 49.4963 207.262 47.3894C207.261 45.2824 208.004 43.4859 209.492 41.9996C210.979 40.5134 212.775 39.7703 214.881 39.7703C216.987 39.7703 218.784 40.5134 220.272 41.9996C221.761 43.4859 222.503 45.2824 222.5 47.3894C222.497 49.4963 221.754 51.2934 220.271 52.7806C218.788 54.2678 216.991 55.0104 214.881 55.0084ZM215.643 47.0846V43.5798C215.643 43.3767 215.567 43.1989 215.415 43.0465C215.262 42.8941 215.084 42.8179 214.881 42.8179C214.678 42.8179 214.5 42.8941 214.348 43.0465C214.196 43.1989 214.119 43.3767 214.119 43.5798V47.0465C214.119 47.2497 214.157 47.4467 214.234 47.6377C214.31 47.8287 214.424 47.9999 214.576 48.1513L216.862 50.437C217.015 50.5894 217.192 50.6655 217.396 50.6655C217.599 50.6655 217.776 50.5894 217.929 50.437C218.081 50.2846 218.157 50.1068 218.157 49.9036C218.157 49.7005 218.081 49.5227 217.929 49.3703L215.643 47.0846Z" fill="white"/>
<circle cx="367.992" cy="136.576" r="37.0084" fill="url(#paint7_linear_0_15)"/>
<circle cx="367.992" cy="136.576" r="37.0084" fill="white" fill-opacity="0.2"/>
<circle cx="367.992" cy="136.576" r="37.0084" fill="white" fill-opacity="0.2"/>
<path d="M382.711 120.576H353.271C352.563 120.576 351.991 121.148 351.991 121.856V151.296C351.991 152.004 352.563 152.576 353.271 152.576H382.711C383.419 152.576 383.991 152.004 383.991 151.296V121.856C383.991 121.148 383.419 120.576 382.711 120.576ZM381.111 149.696H354.871V123.456H381.111V149.696ZM361.111 143.416V146.496C361.111 146.672 361.255 146.816 361.431 146.816H363.351C363.527 146.816 363.671 146.672 363.671 146.496V143.416C363.267 143.548 362.839 143.616 362.391 143.616C361.943 143.616 361.515 143.544 361.111 143.416ZM363.671 135.496V126.656C363.671 126.48 363.527 126.336 363.351 126.336H361.431C361.255 126.336 361.111 126.48 361.111 126.656V135.496C361.515 135.364 361.943 135.296 362.391 135.296C362.839 135.296 363.267 135.368 363.671 135.496ZM361.111 143.416C361.515 143.548 361.943 143.616 362.391 143.616C362.839 143.616 363.267 143.544 363.671 143.416C365.343 142.876 366.551 141.308 366.551 139.456C366.551 137.604 365.343 136.036 363.671 135.496C363.267 135.364 362.839 135.296 362.391 135.296C361.943 135.296 361.515 135.368 361.111 135.496C359.439 136.036 358.231 137.604 358.231 139.456C358.231 141.308 359.439 142.876 361.111 143.416ZM361.115 138.788C361.127 138.764 361.143 138.74 361.155 138.716V138.712L361.203 138.64C361.207 138.632 361.211 138.628 361.215 138.62C361.227 138.6 361.243 138.584 361.255 138.564C361.259 138.56 361.263 138.552 361.267 138.548C361.287 138.524 361.303 138.504 361.323 138.484L361.335 138.472L361.383 138.424L361.399 138.408C361.419 138.388 361.439 138.372 361.463 138.352C361.487 138.332 361.507 138.316 361.531 138.3C361.539 138.296 361.543 138.292 361.551 138.288C361.571 138.276 361.587 138.26 361.607 138.248C361.611 138.244 361.619 138.24 361.623 138.236C361.647 138.22 361.671 138.208 361.699 138.192C361.703 138.188 361.711 138.188 361.715 138.184C361.735 138.172 361.755 138.164 361.779 138.152L361.803 138.14C361.831 138.128 361.855 138.116 361.883 138.108C361.911 138.096 361.939 138.088 361.967 138.08C361.975 138.076 361.983 138.076 361.991 138.072C362.015 138.064 362.035 138.06 362.059 138.056C362.067 138.056 362.071 138.052 362.079 138.052C362.107 138.044 362.139 138.04 362.167 138.036C362.175 138.036 362.179 138.036 362.187 138.032C362.211 138.028 362.235 138.028 362.259 138.024H362.283C362.315 138.024 362.343 138.02 362.375 138.02C362.407 138.02 362.435 138.02 362.467 138.024H362.491C362.515 138.024 362.539 138.028 362.563 138.032C362.571 138.032 362.575 138.032 362.583 138.036C362.611 138.04 362.643 138.044 362.671 138.052C362.679 138.052 362.683 138.056 362.691 138.056C362.715 138.06 362.739 138.068 362.759 138.072C362.767 138.076 362.775 138.076 362.783 138.08C362.811 138.088 362.839 138.096 362.867 138.108C362.895 138.116 362.919 138.128 362.947 138.14L362.971 138.152C362.991 138.16 363.015 138.172 363.035 138.184C363.039 138.188 363.047 138.188 363.051 138.192C363.075 138.204 363.103 138.22 363.127 138.236C363.131 138.24 363.139 138.244 363.143 138.248C363.163 138.26 363.183 138.272 363.199 138.288C363.207 138.292 363.211 138.296 363.219 138.3C363.243 138.316 363.267 138.336 363.287 138.352C363.307 138.368 363.331 138.388 363.351 138.408L363.367 138.424L363.415 138.472L363.427 138.484C363.447 138.504 363.467 138.528 363.483 138.548C363.487 138.552 363.491 138.56 363.495 138.564C363.511 138.58 363.523 138.6 363.535 138.62C363.539 138.628 363.543 138.632 363.547 138.64L363.595 138.712C363.595 138.712 363.595 138.716 363.599 138.716C363.733 138.94 363.803 139.196 363.803 139.456C363.803 139.696 363.743 139.924 363.639 140.124C363.627 140.148 363.611 140.172 363.599 140.196C363.599 140.196 363.599 140.2 363.595 140.2L363.547 140.272C363.543 140.28 363.539 140.284 363.535 140.292C363.523 140.312 363.507 140.328 363.495 140.348C363.491 140.352 363.487 140.36 363.483 140.364C363.463 140.388 363.447 140.408 363.427 140.428L363.415 140.44L363.367 140.488L363.351 140.504C363.331 140.524 363.311 140.54 363.287 140.56C363.263 140.58 363.243 140.596 363.219 140.612C363.211 140.616 363.207 140.62 363.199 140.624C363.179 140.636 363.163 140.652 363.143 140.664C363.139 140.668 363.131 140.672 363.127 140.676C363.103 140.692 363.079 140.704 363.051 140.72C363.047 140.724 363.039 140.724 363.035 140.728C363.015 140.74 362.995 140.748 362.971 140.76L362.947 140.772C362.919 140.784 362.895 140.796 362.867 140.804C362.839 140.816 362.811 140.824 362.783 140.832C362.775 140.836 362.767 140.836 362.759 140.84C362.735 140.848 362.715 140.852 362.691 140.856C362.683 140.856 362.679 140.86 362.671 140.86C362.643 140.868 362.611 140.872 362.583 140.876C362.575 140.876 362.571 140.876 362.563 140.88C362.539 140.884 362.515 140.884 362.491 140.888H362.467C362.435 140.888 362.407 140.892 362.375 140.892C362.343 140.892 362.315 140.892 362.283 140.888H362.259C362.235 140.888 362.211 140.884 362.187 140.88C362.179 140.88 362.175 140.88 362.167 140.876C362.139 140.872 362.107 140.868 362.079 140.86C362.071 140.86 362.067 140.856 362.059 140.856C362.035 140.852 362.011 140.844 361.991 140.84C361.983 140.836 361.975 140.836 361.967 140.832C361.939 140.824 361.911 140.816 361.883 140.804C361.855 140.796 361.831 140.784 361.803 140.772L361.779 140.76C361.759 140.752 361.735 140.74 361.715 140.728C361.711 140.724 361.703 140.724 361.699 140.72C361.675 140.708 361.647 140.692 361.623 140.676C361.619 140.672 361.611 140.668 361.607 140.664C361.587 140.652 361.567 140.64 361.551 140.624C361.543 140.62 361.539 140.616 361.531 140.612C361.507 140.596 361.483 140.576 361.463 140.56C361.443 140.544 361.419 140.524 361.399 140.504L361.383 140.488L361.335 140.44L361.323 140.428C361.303 140.408 361.283 140.384 361.267 140.364C361.263 140.36 361.259 140.352 361.255 140.348C361.239 140.332 361.227 140.312 361.215 140.292C361.211 140.284 361.207 140.28 361.203 140.272L361.155 140.2V140.196C361.139 140.172 361.127 140.148 361.115 140.124C361.011 139.924 360.951 139.696 360.951 139.456C360.951 139.216 361.011 138.988 361.115 138.788ZM372.311 137.656V146.496C372.311 146.672 372.455 146.816 372.631 146.816H374.551C374.727 146.816 374.871 146.672 374.871 146.496V137.656C374.467 137.788 374.039 137.856 373.591 137.856C373.143 137.856 372.715 137.784 372.311 137.656ZM374.871 129.736V126.656C374.871 126.48 374.727 126.336 374.551 126.336H372.631C372.455 126.336 372.311 126.48 372.311 126.656V129.736C372.715 129.604 373.143 129.536 373.591 129.536C374.039 129.536 374.467 129.608 374.871 129.736ZM372.311 137.656C372.715 137.788 373.143 137.856 373.591 137.856C374.039 137.856 374.467 137.784 374.871 137.656C376.543 137.116 377.751 135.548 377.751 133.696C377.751 131.844 376.543 130.276 374.871 129.736C374.467 129.604 374.039 129.536 373.591 129.536C373.143 129.536 372.715 129.608 372.311 129.736C370.639 130.276 369.431 131.844 369.431 133.696C369.431 135.548 370.639 137.116 372.311 137.656ZM372.315 133.028C372.327 133.004 372.343 132.98 372.355 132.956V132.952L372.403 132.88C372.407 132.872 372.411 132.868 372.415 132.86C372.427 132.84 372.443 132.824 372.455 132.804C372.459 132.8 372.463 132.792 372.467 132.788C372.487 132.764 372.503 132.744 372.523 132.724L372.535 132.712L372.583 132.664L372.599 132.648C372.619 132.628 372.639 132.612 372.663 132.592C372.687 132.572 372.707 132.556 372.731 132.54C372.739 132.536 372.743 132.532 372.751 132.528C372.771 132.516 372.787 132.5 372.807 132.488C372.811 132.484 372.819 132.48 372.823 132.476C372.847 132.46 372.871 132.448 372.899 132.432C372.903 132.428 372.911 132.428 372.915 132.424C372.935 132.412 372.955 132.404 372.979 132.392L373.003 132.38C373.031 132.368 373.055 132.356 373.083 132.348C373.111 132.336 373.139 132.328 373.167 132.32C373.175 132.316 373.183 132.316 373.191 132.312C373.215 132.304 373.235 132.3 373.259 132.296C373.267 132.296 373.271 132.292 373.279 132.292C373.307 132.284 373.339 132.28 373.367 132.276C373.375 132.276 373.379 132.276 373.387 132.272C373.411 132.268 373.435 132.268 373.459 132.264H373.483C373.515 132.264 373.543 132.26 373.575 132.26C373.607 132.26 373.635 132.26 373.667 132.264H373.691C373.715 132.264 373.739 132.268 373.763 132.272C373.771 132.272 373.775 132.272 373.783 132.276C373.811 132.28 373.843 132.284 373.871 132.292C373.879 132.292 373.883 132.296 373.891 132.296C373.915 132.3 373.939 132.308 373.959 132.312C373.967 132.316 373.975 132.316 373.983 132.32C374.011 132.328 374.039 132.336 374.067 132.348C374.095 132.356 374.119 132.368 374.147 132.38L374.171 132.392C374.191 132.4 374.215 132.412 374.235 132.424C374.239 132.428 374.247 132.428 374.251 132.432C374.275 132.444 374.303 132.46 374.327 132.476C374.331 132.48 374.339 132.484 374.343 132.488C374.363 132.5 374.383 132.512 374.399 132.528C374.407 132.532 374.411 132.536 374.419 132.54C374.443 132.556 374.467 132.576 374.487 132.592C374.507 132.608 374.531 132.628 374.551 132.648L374.567 132.664L374.615 132.712L374.627 132.724C374.647 132.744 374.667 132.768 374.683 132.788C374.687 132.792 374.691 132.8 374.695 132.804C374.711 132.82 374.723 132.84 374.735 132.86C374.739 132.868 374.743 132.872 374.747 132.88L374.795 132.952V132.956C374.929 133.18 374.999 133.436 374.999 133.696C374.999 133.936 374.939 134.164 374.835 134.364C374.823 134.388 374.807 134.412 374.795 134.436V134.44L374.747 134.512C374.743 134.52 374.739 134.524 374.735 134.532C374.723 134.552 374.707 134.568 374.695 134.588C374.691 134.592 374.687 134.6 374.683 134.604C374.663 134.628 374.647 134.648 374.627 134.668L374.615 134.68L374.567 134.728L374.551 134.744C374.531 134.764 374.511 134.78 374.487 134.8C374.463 134.82 374.443 134.836 374.419 134.852C374.411 134.856 374.407 134.86 374.399 134.864C374.379 134.876 374.363 134.892 374.343 134.904C374.339 134.908 374.331 134.912 374.327 134.916C374.303 134.932 374.279 134.944 374.251 134.96C374.247 134.964 374.239 134.964 374.235 134.968C374.215 134.98 374.195 134.988 374.171 135L374.147 135.012C374.119 135.024 374.095 135.036 374.067 135.044C374.039 135.056 374.011 135.064 373.983 135.072C373.975 135.076 373.967 135.076 373.959 135.08C373.935 135.088 373.915 135.092 373.891 135.096C373.883 135.096 373.879 135.1 373.871 135.1C373.843 135.108 373.811 135.112 373.783 135.116C373.775 135.116 373.771 135.116 373.763 135.12C373.739 135.124 373.715 135.124 373.691 135.128H373.667C373.635 135.128 373.607 135.132 373.575 135.132C373.543 135.132 373.515 135.132 373.483 135.128H373.459C373.435 135.128 373.411 135.124 373.387 135.12C373.379 135.12 373.375 135.12 373.367 135.116C373.339 135.112 373.307 135.108 373.279 135.1C373.271 135.1 373.267 135.096 373.259 135.096C373.235 135.092 373.211 135.084 373.191 135.08C373.183 135.076 373.175 135.076 373.167 135.072C373.139 135.064 373.111 135.056 373.083 135.044C373.055 135.036 373.031 135.024 373.003 135.012L372.979 135C372.959 134.992 372.935 134.98 372.915 134.968C372.911 134.964 372.903 134.964 372.899 134.96C372.875 134.948 372.847 134.932 372.823 134.916C372.819 134.912 372.811 134.908 372.807 134.904C372.787 134.892 372.767 134.88 372.751 134.864C372.743 134.86 372.739 134.856 372.731 134.852C372.707 134.836 372.683 134.816 372.663 134.8C372.643 134.784 372.619 134.764 372.599 134.744L372.583 134.728L372.535 134.68L372.523 134.668C372.503 134.648 372.483 134.624 372.467 134.604C372.463 134.6 372.459 134.592 372.455 134.588C372.439 134.572 372.427 134.552 372.415 134.532C372.411 134.524 372.407 134.52 372.403 134.512L372.355 134.44V134.436C372.339 134.412 372.327 134.388 372.315 134.364C372.211 134.164 372.151 133.936 372.151 133.696C372.151 133.456 372.211 133.228 372.315 133.028Z" fill="white"/>
<circle cx="45.0085" cy="345.168" r="37.0084" fill="url(#paint8_linear_0_15)"/>
<circle cx="45.0085" cy="345.168" r="37.0084" fill="white" fill-opacity="0.2"/>
<circle cx="45.0085" cy="345.168" r="37.0084" fill="white" fill-opacity="0.2"/>
<path d="M57.744 349.886C57.76 349.646 57.808 349.406 57.808 349.166V349.966L57.744 349.886ZM41.8083 349.166C41.8083 350.302 42.0483 351.39 42.4803 352.366H33.8085V353.966C33.8085 354.846 33.0885 355.566 32.2085 355.566H30.6085C29.7285 355.566 29.0085 354.846 29.0085 353.966V341.166L32.3365 331.566C32.6565 330.638 33.5525 329.966 34.6084 329.966H52.2081C53.2641 329.966 54.1601 330.638 54.4801 331.566L57.808 341.166V349.166C57.808 344.75 54.2241 341.166 49.8082 341.166C45.3922 341.166 41.8083 344.75 41.8083 349.166ZM37.0084 345.166C37.0084 343.838 35.9364 342.766 34.6084 342.766C33.2805 342.766 32.2085 343.838 32.2085 345.166C32.2085 346.494 33.2805 347.566 34.6084 347.566C35.9364 347.566 37.0084 346.494 37.0084 345.166ZM54.6081 339.566L52.2081 332.366H34.6084L32.2085 339.566H54.6081ZM60.7999 357.47L54.2241 350.894C54.8801 349.23 54.5121 347.278 53.1361 345.918C51.6961 344.462 49.5362 344.174 47.7922 344.974L50.8961 348.078L48.7362 350.254L45.5522 347.134C44.6883 348.878 45.0882 351.038 46.4962 352.494C47.1316 353.142 47.9427 353.591 48.8296 353.784C49.7165 353.977 50.6406 353.907 51.4881 353.582L58.064 360.142C58.352 360.446 58.784 360.446 59.072 360.142L60.736 358.494C61.0879 358.206 61.0879 357.694 60.7999 357.47Z" fill="white"/>
<circle cx="45.0085" cy="136.576" r="37.0084" fill="url(#paint9_linear_0_15)"/>
<circle cx="45.0085" cy="136.576" r="37.0084" fill="white" fill-opacity="0.2"/>
<circle cx="45.0085" cy="136.576" r="37.0084" fill="white" fill-opacity="0.2"/>
<path fill-rule="evenodd" clip-rule="evenodd" d="M34.0978 121.309C32.748 121.309 31.4536 121.845 30.4991 122.799C29.5447 123.754 29.0085 125.048 29.0085 126.398V146.755C29.0085 148.104 29.5447 149.399 30.4991 150.353C31.4536 151.308 32.748 151.844 34.0978 151.844H54.4546C55.8043 151.844 57.0988 151.308 58.0532 150.353C59.0076 149.399 59.5438 148.104 59.5438 146.755V138.273C59.5438 137.823 59.3651 137.391 59.0469 137.073C58.7288 136.755 58.2973 136.576 57.8474 136.576C57.3975 136.576 56.966 136.755 56.6478 137.073C56.3297 137.391 56.151 137.823 56.151 138.273V146.755C56.151 147.205 55.9722 147.636 55.6541 147.954C55.336 148.272 54.9045 148.451 54.4546 148.451H34.0978C33.6478 148.451 33.2164 148.272 32.8982 147.954C32.5801 147.636 32.4013 147.205 32.4013 146.755V126.398C32.4013 125.948 32.5801 125.516 32.8982 125.198C33.2164 124.88 33.6478 124.701 34.0978 124.701H47.669C48.1189 124.701 48.5504 124.523 48.8685 124.205C49.1866 123.886 49.3654 123.455 49.3654 123.005C49.3654 122.555 49.1866 122.124 48.8685 121.805C48.5504 121.487 48.1189 121.309 47.669 121.309H34.0978ZM60.1511 126.474C60.5419 126.252 60.8285 125.883 60.9478 125.45C61.0671 125.016 61.0093 124.553 60.7872 124.162C60.5617 123.774 60.1929 123.49 59.7603 123.371C59.3276 123.252 58.8655 123.308 58.4733 123.526C57.8745 123.865 57.296 124.245 56.7261 124.628C55.2806 125.601 53.886 126.646 52.5478 127.762C49.7623 130.079 46.417 133.343 43.6604 137.462C42.8033 136.333 41.8083 135.316 40.6985 134.435C39.9741 133.87 39.1683 133.316 38.298 133C37.8756 132.845 37.4071 132.864 36.9988 133.053C36.5905 133.243 36.274 133.586 36.119 134.009C35.964 134.431 35.9832 134.898 36.1723 135.306C36.3615 135.715 36.7051 136.031 37.1275 136.186C37.1699 136.203 37.7552 136.44 38.6136 137.111C39.5941 137.874 40.9478 139.212 42.2541 141.448C42.4043 141.706 42.6198 141.919 42.8787 142.067C43.1376 142.214 43.4308 142.291 43.7289 142.289C44.0269 142.288 44.3193 142.207 44.5765 142.057C44.8337 141.906 45.0466 141.69 45.1939 141.431C47.881 136.697 51.6182 132.949 54.7175 130.371C56.2612 129.087 57.6353 128.104 58.6158 127.446C59.1163 127.109 59.6252 126.778 60.1494 126.476L60.1511 126.474Z" fill="white"/>
<circle cx="149.306" cy="133.212" r="50.466" fill="url(#paint10_linear_0_15)"/>
<circle cx="149.306" cy="133.212" r="50.466" fill="white" fill-opacity="0.2"/>
<path d="M125.305 109.212V151.878C125.305 153.293 125.867 154.649 126.867 155.65C127.868 156.65 129.224 157.212 130.639 157.212H173.305" stroke="white" stroke-width="4.72131" stroke-miterlimit="5.759" stroke-linecap="round" stroke-linejoin="round"/>
<path d="M135.972 125.212L146.639 135.879L157.306 125.212L173.306 141.212" stroke="white" stroke-width="4.72131" stroke-miterlimit="5.759" stroke-linecap="round" stroke-linejoin="round"/>
<path d="M165.306 141.213H173.306V133.213" stroke="white" stroke-width="4.72131" stroke-linecap="round" stroke-linejoin="round"/>
<circle cx="149.306" cy="348.533" r="50.466" fill="url(#paint11_linear_0_15)"/>
<circle cx="149.306" cy="348.533" r="50.466" fill="white" fill-opacity="0.2"/>
<path d="M136.376 324.532H128.618C127.19 324.532 126.032 325.726 126.032 327.198V335.193C126.032 336.665 127.19 337.858 128.618 337.858H136.376C137.804 337.858 138.962 336.665 138.962 335.193V327.198C138.962 325.726 137.804 324.532 136.376 324.532Z" stroke="white" stroke-width="5.16923" stroke-linecap="round" stroke-linejoin="round"/>
<path d="M169.993 324.532H162.235C160.807 324.532 159.65 325.726 159.65 327.198V335.193C159.65 336.665 160.807 337.858 162.235 337.858H169.993C171.421 337.858 172.579 336.665 172.579 335.193V327.198C172.579 325.726 171.421 324.532 169.993 324.532Z" stroke="white" stroke-width="5.16923" stroke-linecap="round" stroke-linejoin="round"/>
<path d="M136.376 359.18H128.618C127.19 359.18 126.032 360.373 126.032 361.845V369.841C126.032 371.312 127.19 372.506 128.618 372.506H136.376C137.804 372.506 138.962 371.312 138.962 369.841V361.845C138.962 360.373 137.804 359.18 136.376 359.18Z" stroke="white" stroke-width="5.16923" stroke-linecap="round" stroke-linejoin="round"/>
<path d="M172.578 359.18H164.82C163.449 359.18 162.133 359.741 161.163 360.741C160.193 361.741 159.648 363.097 159.648 364.51V372.506M172.578 372.506V372.532M149.305 335.193V343.189C149.305 344.602 148.76 345.958 147.79 346.958C146.82 347.958 145.505 348.519 144.133 348.519H136.376M126.032 348.519H126.058M149.305 324.532H149.331M149.305 359.18V359.207M159.648 348.519H162.234M172.578 348.519V348.546M149.305 372.506V369.841" stroke="white" stroke-width="5.16923" stroke-linecap="round" stroke-linejoin="round"/>
<circle cx="85.3813" cy="240.873" r="50.466" fill="url(#paint12_linear_0_15)"/>
<circle cx="85.3813" cy="240.873" r="50.466" fill="white" fill-opacity="0.2"/>
<path d="M101.509 247.498C102.349 245.458 102.805 243.274 102.805 240.874C102.805 239.146 102.541 237.49 102.085 235.954C100.525 236.314 98.8934 236.506 97.1894 236.506C93.6997 236.509 90.2603 235.674 87.1611 234.07C84.0618 232.466 81.3936 230.141 79.3814 227.29C77.2309 232.499 73.1695 236.69 68.0294 239.002C67.9334 239.602 67.9334 240.25 67.9334 240.874C67.9334 243.165 68.3847 245.434 69.2616 247.551C70.1384 249.668 71.4236 251.591 73.0438 253.211C76.3159 256.483 80.7539 258.322 85.3814 258.322C87.9014 258.322 90.3254 257.77 92.5094 256.786C93.8774 259.402 94.5014 260.698 94.4534 260.698C90.5174 262.018 87.4694 262.666 85.3814 262.666C79.5734 262.666 74.0294 260.386 69.9494 256.282C67.4655 253.809 65.6205 250.77 64.5734 247.426H61.3814V236.506H63.9974C64.79 232.648 66.6122 229.076 69.2707 226.17C71.9291 223.264 75.3247 221.132 79.0971 220C82.8694 218.868 86.8779 218.779 90.6971 219.741C94.5163 220.703 98.0037 222.681 100.789 225.466C103.813 228.479 105.876 232.321 106.717 236.506H109.381V247.426H109.237L100.693 255.274L87.9734 253.834V249.826H99.5654L101.509 247.498ZM78.8294 240.322C79.5494 240.322 80.2454 240.61 80.7494 241.138C81.2559 241.648 81.5401 242.338 81.5401 243.058C81.5401 243.777 81.2559 244.467 80.7494 244.978C80.2454 245.482 79.5494 245.77 78.8294 245.77C77.3174 245.77 76.0934 244.57 76.0934 243.058C76.0934 241.546 77.3174 240.322 78.8294 240.322ZM91.9094 240.322C93.4214 240.322 94.6214 241.546 94.6214 243.058C94.6214 244.57 93.4214 245.77 91.9094 245.77C90.3974 245.77 89.1734 244.57 89.1734 243.058C89.1734 242.332 89.4617 241.636 89.9748 241.123C90.4879 240.61 91.1838 240.322 91.9094 240.322Z" fill="white"/>
</g>
<defs>
<filter id="filter0_d_0_15" x="0.110254" y="0.872885" width="412.78" height="493.524" filterUnits="userSpaceOnUse" color-interpolation-filters="sRGB">
<feFlood flood-opacity="0" result="BackgroundImageFix"/>
<feColorMatrix in="SourceAlpha" type="matrix" values="0 0 0 0 0 0 0 0 0 0 0 0 0 0 0 0 0 0 127 0" result="hardAlpha"/>
<feOffset dy="6.76269"/>
<feGaussianBlur stdDeviation="3.9449"/>
<feComposite in2="hardAlpha" operator="out"/>
<feColorMatrix type="matrix" values="0 0 0 0 0 0 0 0 0 0 0 0 0 0 0 0 0 0 0.07 0"/>
<feBlend mode="normal" in2="BackgroundImageFix" result="effect1_dropShadow_0_15"/>
<feBlend mode="normal" in="SourceGraphic" in2="effect1_dropShadow_0_15" result="shape"/>
</filter>
<linearGradient id="paint0_linear_0_15" x1="145.941" y1="180.313" x2="178.184" y2="355.863" gradientUnits="userSpaceOnUse">
<stop stop-color="#884B9D"/>
<stop offset="1" stop-color="#2B265E"/>
<stop offset="1" stop-color="#29255D"/>
</linearGradient>
<linearGradient id="paint1_linear_0_15" x1="277.153" y1="190.407" x2="304.021" y2="336.698" gradientUnits="userSpaceOnUse">
<stop stop-color="#884B9D"/>
<stop offset="1" stop-color="#2B265E"/>
<stop offset="1" stop-color="#29255D"/>
</linearGradient>
<linearGradient id="paint2_linear_0_15" x1="213.229" y1="82.7456" x2="240.098" y2="229.037" gradientUnits="userSpaceOnUse">
<stop stop-color="#884B9D"/>
<stop offset="1" stop-color="#2B265E"/>
<stop offset="1" stop-color="#29255D"/>
</linearGradient>
<linearGradient id="paint3_linear_0_15" x1="213.229" y1="298.067" x2="240.098" y2="444.358" gradientUnits="userSpaceOnUse">
<stop stop-color="#884B9D"/>
<stop offset="1" stop-color="#2B265E"/>
<stop offset="1" stop-color="#29255D"/>
</linearGradient>
<linearGradient id="paint4_linear_0_15" x1="330.983" y1="308.16" x2="350.687" y2="415.44" gradientUnits="userSpaceOnUse">
<stop stop-color="#884B9D"/>
<stop offset="1" stop-color="#2B265E"/>
<stop offset="1" stop-color="#29255D"/>
</linearGradient>
<linearGradient id="paint5_linear_0_15" x1="169.492" y1="405.728" x2="189.196" y2="513.008" gradientUnits="userSpaceOnUse">
<stop stop-color="#884B9D"/>
<stop offset="1" stop-color="#2B265E"/>
<stop offset="1" stop-color="#29255D"/>
</linearGradient>
<linearGradient id="paint6_linear_0_15" x1="169.492" y1="2" x2="189.196" y2="109.28" gradientUnits="userSpaceOnUse">
<stop stop-color="#884B9D"/>
<stop offset="1" stop-color="#2B265E"/>
<stop offset="1" stop-color="#29255D"/>
</linearGradient>
<linearGradient id="paint7_linear_0_15" x1="330.983" y1="99.5679" x2="350.687" y2="206.848" gradientUnits="userSpaceOnUse">
<stop stop-color="#884B9D"/>
<stop offset="1" stop-color="#2B265E"/>
<stop offset="1" stop-color="#29255D"/>
</linearGradient>
<linearGradient id="paint8_linear_0_15" x1="8.00006" y1="308.16" x2="27.7037" y2="415.44" gradientUnits="userSpaceOnUse">
<stop stop-color="#884B9D"/>
<stop offset="1" stop-color="#2B265E"/>
<stop offset="1" stop-color="#29255D"/>
</linearGradient>
<linearGradient id="paint9_linear_0_15" x1="8.00006" y1="99.5679" x2="27.7037" y2="206.848" gradientUnits="userSpaceOnUse">
<stop stop-color="#884B9D"/>
<stop offset="1" stop-color="#2B265E"/>
<stop offset="1" stop-color="#29255D"/>
</linearGradient>
<linearGradient id="paint10_linear_0_15" x1="98.8397" y1="82.7456" x2="125.708" y2="229.037" gradientUnits="userSpaceOnUse">
<stop stop-color="#884B9D"/>
<stop offset="1" stop-color="#2B265E"/>
<stop offset="1" stop-color="#29255D"/>
</linearGradient>
<linearGradient id="paint11_linear_0_15" x1="98.8397" y1="298.067" x2="125.708" y2="444.358" gradientUnits="userSpaceOnUse">
<stop stop-color="#884B9D"/>
<stop offset="1" stop-color="#2B265E"/>
<stop offset="1" stop-color="#29255D"/>
</linearGradient>
<linearGradient id="paint12_linear_0_15" x1="34.9153" y1="190.407" x2="61.7839" y2="336.698" gradientUnits="userSpaceOnUse">
<stop stop-color="#884B9D"/>
<stop offset="1" stop-color="#2B265E"/>
<stop offset="1" stop-color="#29255D"/>
</linearGradient>
</defs>
</svg>
